<svg width="50" height="50" viewBox="0 0 50 50" fill="none" xmlns="http://www.w3.org/2000/svg">
    <path d="M50 25C50 38.8071 38.8103 50 25.0072 50C11.204 50 0.0143252 38.8071 0.0143252 25C0.0143252 11.1929 11.204 0 25.0072 0C38.8103 0 50 11.1929 50 25Z" fill="#FF054C" />
    <path d="M38.0768 3.67366C38.0768 3.67366 38.6022 3.9699 39.7191 4.7808C42.7306 6.86734 44.1472 8.6728 46.0492 11.5045L38.5267 14.4951C37.6352 14.7772 36.1131 15.2094 36.1131 15.2094C36.1131 15.2094 34.6164 15.5649 33.6495 15.5869H25.4948C20.0622 15.3776 17.4332 17.8752 13.0699 24.3727C16.4162 24.5686 18.2925 24.5775 21.6388 24.3727C26.8659 22.8326 29.5787 21.8303 34.2065 19.9084C37.1547 18.5321 38.7428 16.5152 40.3476 16.0155C41.9524 15.5158 39.5599 19.8822 38.5267 20.8369C37.4934 21.7917 34.6767 23.9285 31.3145 24.9441C26.592 27.0022 23.9265 27.9976 19.1395 29.4798C13.7441 30.718 11.1329 31.5902 7.75 33.6941C6.80496 34.437 6.17902 35.0156 5.42925 34.837C4.67947 34.6584 4.98297 32.4688 6.78599 28.5513C3.80226 28.7432 0.0842979 26.8882 0.0842979 26.8882C-0.186627 22.852 0.186444 20.7151 1.33482 16.9601C6.86692 19.0757 38.0768 3.67366 38.0768 3.67366Z" fill="#FBA900" />
    <path d="M5.0102 39.9993C14.1398 38.9236 19.0778 37.5375 27.4331 33.1752C35.5673 28.5959 40.5094 27.277 49.9246 26.89C49.6984 29.5313 49.3917 30.8809 48.6454 33.1435C33.5605 36.253 25.1756 38.8286 10.4037 45.2813C8.07984 43.5201 6.87291 42.3993 5.0102 39.9993Z" fill="#00BDBD" />
    <path d="M5.01182 10.0002C15.5533 8.95173 21.6506 6.76713 32.7182 1.21865C33.6853 1.53467 34.2152 1.73954 35.146 2.14678C22.1514 9.05182 15.0471 11.5257 2.65535 13.7842C3.44252 12.3049 3.93796 11.4762 5.01182 10.0002Z" fill="#00BDBD" />
    <path d="M33.0755 34.8574C39.2198 33.6019 42.6181 33.2192 48.6929 33.0009C48.4722 33.6456 48.3336 34.0047 48.0731 34.6429C41.9015 34.9047 38.4818 35.6877 32.3256 37.1422L33.0755 34.8574Z" fill="#FBA900" />
    <path d="M7.29508 42.6403C17.1328 42.7043 21.9005 41.1973 28.609 34.7678C35.4183 29.3548 40.0754 27.6092 49.93 26.89C49.8066 28.4056 49.6809 29.2447 49.3514 30.7124C41.4517 31.6539 37.4569 33.342 31.269 38.8764C25.7751 45.6714 21.6868 47.1285 13.1997 47.0402C10.6686 45.6129 9.36159 44.6487 7.29508 42.6403Z" fill="#00A1AC" />
    <path d="M5.86154 8.92996C17.8392 8.03318 24.4847 6.72466 36.2073 2.64454C37.5744 3.33498 38.3548 3.81132 39.7212 4.78383C30.8333 7.91123 23.768 9.47344 3.89961 11.6073C4.55535 10.5555 4.97537 9.97157 5.86154 8.92996Z" fill="#00A1AC" />
</svg>
    